<?xml version="1.0" encoding="UTF-8" standalone="no"?>
<svg xmlns="http://www.w3.org/2000/svg" xmlns:xlink="http://www.w3.org/1999/xlink" version="1.1" width="460" height="140" viewBox="455 230 460 140"><g fill="none" fill-rule="nonzero" stroke="none" stroke-width="1" stroke-linecap="butt" stroke-linejoin="miter" stroke-miterlimit="10" font-family="none" font-weight="none" font-size="none"><g id="stage"><g id="layer1-1"><g id="Group-1"><g id="Group-1-1"><g id="Group-1-2"><path d="M627.7916,271.44641c11.90164,-1.0984 24.85575,1.8323 34.37054,9.28566c8.64636,6.78782 14.19523,16.77183 15.39371,27.6984c3.16913,26.64648 -13.57808,46.30937 -39.87894,49.26796c-12.82012,0.93789 -24.95993,-1.4 -35.16653,-9.64413c-8.73005,-7.06016 -14.23653,-17.3496 -15.26875,-28.53047c-2.59273,-26.19258 14.62207,-45.72969 40.54995,-48.07742z" id="Path-1-1" fill="#2a7fed"/><path d="M629.31136,291.37727c1.56324,-0.10692 2.96707,-0.17336 4.55601,-0.12934c21.33141,0.59007 26.2943,31.69934 10.76305,42.95676c-2.93181,2.1246 -5.52207,2.83282 -9.06911,3.49181c-12.70227,0.83399 -21.74676,-5.27735 -23.92113,-18.36134c-2.15523,-12.9746 3.69113,-25.7496 17.67117,-27.95789z" id="Path-1-2" fill="#ffffff"/><path d="M851.49765,271.44859c11.32031,-1.30293 27.69922,1.48284 36.05,9.95258c10.89922,11.05317 9.21758,27.08399 9.22031,41.37383l0.00819,33.88437l-22.2961,0.00273l-0.00273,-9.89843c-6.80859,9.14101 -16.64413,11.59375 -27.63087,11.14805c-9.18477,-0.37188 -16.56758,-3.00235 -23.00157,-9.625c-3.85273,-4.80977 -6.06484,-10.01601 -5.95,-16.21484c0.53866,-28.88594 35.21054,-25.77422 54.51796,-25.70587c-0.36366,-8.4711 -4.14805,-13.96883 -12.92265,-15.43336c-10.63671,-1.77488 -20.72657,1.32782 -29.48204,7.40523c-2.8793,-5.50075 -5.7996,-10.97988 -8.75819,-16.43716c9.25587,-6.58902 18.93007,-9.57688 30.24765,-10.45216z" id="Path-1-3" fill="#2a7fed"/><path d="M854.6039,321.21366c5.7996,-0.22422 12.11601,-0.10117 17.9539,-0.09843c0,4.09336 0.50312,8.47383 -1.64883,12.0504c-2.77812,4.61836 -6.51601,6.38204 -11.36681,7.7793c-0.23242,0.03282 -0.46484,0.06563 -0.69453,0.0957c-4.64296,0.61523 -9.87657,0.57422 -13.7211,-2.51563c-2.06171,-1.63789 -3.36054,-4.05507 -3.58477,-6.68007c-0.68087,-8.01993 6.65819,-10.22383 13.06211,-10.63125z" id="Path-1-4" fill="#ffffff"/><path d="M566.58289,241.25671l33.72413,0.00437c-6.65711,11.04087 -13.49249,23.77622 -19.89559,35.09735l-39.8393,70.42984c-2.06937,3.62305 -4.11742,7.25704 -6.14413,10.90469l-17.5711,-31.14181z" id="Path-1-5" fill="#2a7fed"/><path d="M695.37305,252.91336l24.18829,0.01422l-0.01366,21.10089l21.14218,0.0011v18.28887l-21.14218,0.00301l0.01366,24.01136c-0.01366,4.04688 -0.34727,8.73359 0.04922,12.69843c1.24141,12.42773 12.72578,10.6996 20.63087,6.53242c1.40273,4.13984 2.85742,8.26329 4.35859,12.36758l1.60782,4.85078c-14.51406,8.5996 -41.38204,7.48125 -48.36563,-10.58477c-3.15547,-8.15937 -2.39258,-16.92852 -2.38164,-25.53906l-0.03829,-24.31434l-12.41681,-0.00355l-0.00273,-18.31648l12.41953,0.00847c0.03554,-7.03965 0.01913,-14.07958 -0.04922,-21.11894z" id="Path-1-6" fill="#2a7fed"/><path d="M760.98984,252.92594c7.86953,-0.15012 16.22031,-0.00411 24.1254,-0.00246l0.01366,21.10171l20.96446,0.00273l-0.01366,18.30282l-20.95078,-0.01531l0.01913,23.42129c-0.01094,4.25469 -0.38829,9.3789 0.08204,13.5543c1.38634,12.25819 12.85704,10.325 20.58711,6.18242c1.3289,4.04688 2.71251,8.0746 4.15625,12.08319l1.74727,5.21718c-16.11094,9.54296 -45.09258,6.75937 -49.63984,-14.66171c-1.5039,-7.08749 -1.0746,-14.20235 -1.07188,-21.40469l0.00273,-24.3693l-12.38671,-0.00411l-0.00819,-18.30336l12.38125,0.00164z" id="Path-1-7" fill="#2a7fed"/><path d="M469.02723,241.25098l33.33695,0.00164c1.04371,1.68902 1.98625,3.48824 2.98402,5.21199c8.34587,14.41589 16.33598,29.1066 24.82894,43.43117c-3.69551,6.08507 -7.31692,12.59836 -10.83634,18.79171c-2.11012,3.48634 -4.2927,7.54688 -6.32789,11.1289z" id="Path-1-8" fill="#2a7fed"/></g></g></g></g></g></g></svg>